# xmcd
#
# Track frame offsets: 
#        150
#        16117
#        31897
#        44005
#        60187
#        73192
#        86125
#        98095
#        112160
#        123932
#        136267
#        150810
#        193672
#        214987
#        235995
#        257020
#        278917
#        293932
#
# Disc length: 4183 seconds
#
# Revision: 1
# Processed by: cddbd v1.5.2PL0 Copyright (c) Steve Scherf et al.
# Submitted via: ExactAudioCopyFreeDBPlugin 1.0
#
DISCID=01105512
DTITLE=The Mar-Keys - Damifiknow and Memphis Experience
DYEAR=1990
DGENRE=Soul
TTITLE0=Mustang Sally
TTITLE1=Never Loved a Man (The Way I Love You)
TTITLE2=Knock on Wood
TTITLE3=Daydream
TTITLE4=Double or Nothing
TTITLE5=Coffee Cup
TTITLE6=Black
TTITLE7=One with Sugar
TTITLE8=Jive Man
TTITLE9=Soul Man
TTITLE10=Heads or Tails
TTITLE11=Cloud Nine
TTITLE12=After the Affair
TTITLE13=Reach Out I'll Be There
TTITLE14=Angel Dust
TTITLE15=Hummingbird
TTITLE16=Let it Be
TTITLE17=Creeper's Funkatrations
EXTD=
EXTT0=
EXTT1=
EXTT2=
EXTT3=
EXTT4=
EXTT5=
EXTT6=
EXTT7=
EXTT8=
EXTT9=
EXTT10=
EXTT11=
EXTT12=
EXTT13=
EXTT14=
EXTT15=
EXTT16=
EXTT17=
PLAYORDER=
